# xmcd
#
# Track frame offsets:
#	150
#	11477
#	23073
#	34071
#	45739
#	57425
#	67886
#	79773
#	90711
#	105771
#	116553
#	128931
#	140856
#	152928
#	168055
#
# Disc length: 2425 seconds
#
# Revision: 1
# Processed by: cddbd v1.5.2PL0 Copyright (c) Steve Scherf et al.
# Submitted via: audiograbber 1.83.01
#
DISCID=bc09770f
DTITLE=Dennis Lee - Mountain Melodies
DYEAR=2004
DGENRE=Bluegrass
TTITLE0=The Water is Wide
TTITLE1=Red Wing
TTITLE2=Scarborough Fair
TTITLE3=Sailor's hornpipe
TTITLE4=This is my Father's world
TTITLE5=Sally Ann
TTITLE6=Ashokin Farewell
TTITLE7=Burmudaful
TTITLE8=The Tennesee Waltz
TTITLE9=Mississippi Sawyer
TTITLE10=BeThou my Vision
TTITLE11=Minuet in G (Bach)
TTITLE12=Fanny Power
TTITLE13=Gentle Annie
TTITLE14=Devil's Dream
EXTD=
EXTT0=
EXTT1=
EXTT2=
EXTT3=
EXTT4=
EXTT5=
EXTT6=
EXTT7=
EXTT8=
EXTT9=
EXTT10=
EXTT11=
EXTT12=
EXTT13=
EXTT14=
PLAYORDER=
